<svg xmlns="http://www.w3.org/2000/svg" xmlns:xlink="http://www.w3.org/1999/xlink" width="315" zoomAndPan="magnify" viewBox="0 0 236.25 82.499998" height="110" preserveAspectRatio="xMidYMid meet" version="1.0"><defs><g/><clipPath id="b9e519b55a"><path d="M 0.339844 0 L 235.164062 0 L 235.164062 82.003906 L 0.339844 82.003906 Z M 0.339844 0 " clip-rule="nonzero"/></clipPath><clipPath id="a5623e806a"><path d="M 3.15625 6.132812 L 231.988281 6.132812 L 231.988281 67.261719 L 3.15625 67.261719 Z M 3.15625 6.132812 " clip-rule="nonzero"/></clipPath><clipPath id="830da5156c"><path d="M 27.949219 58.785156 L 207.554688 58.785156 L 207.554688 75.871094 L 27.949219 75.871094 Z M 27.949219 58.785156 " clip-rule="nonzero"/></clipPath></defs><g clip-path="url(#b9e519b55a)"><path fill="#ffffff" d="M 0.339844 0 L 235.910156 0 L 235.910156 89.457031 L 0.339844 89.457031 Z M 0.339844 0 " fill-opacity="1" fill-rule="nonzero"/><path fill="#ffffff" d="M 0.339844 0 L 235.164062 0 L 235.164062 82.003906 L 0.339844 82.003906 Z M 0.339844 0 " fill-opacity="1" fill-rule="nonzero"/><path fill="#060606" d="M 0.339844 0 L 235.164062 0 L 235.164062 82.003906 L 0.339844 82.003906 Z M 0.339844 0 " fill-opacity="1" fill-rule="nonzero"/></g><g clip-path="url(#a5623e806a)"><path stroke-linecap="butt" transform="matrix(0.744307, 0, 0, 0.744772, 3.155704, 6.131948)" fill="none" stroke-linejoin="miter" d="M 0.000732923 0.00116086 L 307.443601 0.00116086 L 307.443601 82.07847 L 0.000732923 82.07847 L 0.000732923 0.00116086 " stroke="#fbfaf9" stroke-width="2" stroke-opacity="1" stroke-miterlimit="4"/></g><g fill="#ffffff" fill-opacity="1"><g transform="translate(9.785539, 46.540034)"><g><path d="M 8.5 -17.046875 C 7.9375 -17.015625 7.53125 -16.945312 7.28125 -16.84375 C 7.03125 -16.75 6.859375 -16.5625 6.765625 -16.28125 C 6.679688 -16 6.640625 -15.546875 6.640625 -14.921875 L 6.640625 -2.625 C 6.640625 -2 6.679688 -1.546875 6.765625 -1.265625 C 6.859375 -0.984375 7.03125 -0.789062 7.28125 -0.6875 C 7.53125 -0.59375 7.9375 -0.53125 8.5 -0.5 L 8.5 0 C 7.601562 -0.0507812 6.359375 -0.078125 4.765625 -0.078125 C 2.992188 -0.078125 1.6875 -0.0507812 0.84375 0 L 0.84375 -0.5 C 1.382812 -0.53125 1.78125 -0.59375 2.03125 -0.6875 C 2.289062 -0.789062 2.46875 -0.984375 2.5625 -1.265625 C 2.65625 -1.546875 2.703125 -2 2.703125 -2.625 L 2.703125 -14.921875 C 2.703125 -15.546875 2.65625 -16 2.5625 -16.28125 C 2.46875 -16.5625 2.289062 -16.75 2.03125 -16.84375 C 1.78125 -16.945312 1.382812 -17.015625 0.84375 -17.046875 L 0.84375 -17.546875 C 1.6875 -17.492188 2.992188 -17.46875 4.765625 -17.46875 C 6.359375 -17.46875 7.601562 -17.492188 8.5 -17.546875 Z M 8.5 -17.046875 "/></g></g></g><g fill="#ffffff" fill-opacity="1"><g transform="translate(18.360342, 46.540034)"><g><path d="M 9.8125 -13.15625 C 11.070312 -13.15625 11.984375 -12.832031 12.546875 -12.1875 C 12.816406 -11.875 13.007812 -11.46875 13.125 -10.96875 C 13.25 -10.476562 13.3125 -9.8125 13.3125 -8.96875 L 13.3125 -2.296875 C 13.3125 -1.617188 13.429688 -1.148438 13.671875 -0.890625 C 13.910156 -0.640625 14.316406 -0.515625 14.890625 -0.515625 L 14.890625 0 C 13.242188 -0.0625 12.15625 -0.09375 11.625 -0.09375 C 11.125 -0.09375 10.050781 -0.0625 8.40625 0 L 8.40625 -0.515625 C 8.894531 -0.515625 9.238281 -0.640625 9.4375 -0.890625 C 9.632812 -1.148438 9.734375 -1.617188 9.734375 -2.296875 L 9.734375 -10.015625 C 9.734375 -10.691406 9.617188 -11.203125 9.390625 -11.546875 C 9.171875 -11.890625 8.773438 -12.0625 8.203125 -12.0625 C 7.523438 -12.0625 6.945312 -11.785156 6.46875 -11.234375 C 5.988281 -10.679688 5.75 -10 5.75 -9.1875 L 5.75 -2.296875 C 5.75 -1.617188 5.847656 -1.148438 6.046875 -0.890625 C 6.242188 -0.640625 6.59375 -0.515625 7.09375 -0.515625 L 7.09375 0 C 5.570312 -0.0625 4.546875 -0.09375 4.015625 -0.09375 C 3.515625 -0.09375 2.375 -0.0625 0.59375 0 L 0.59375 -0.515625 C 1.1875 -0.515625 1.597656 -0.640625 1.828125 -0.890625 C 2.066406 -1.148438 2.1875 -1.617188 2.1875 -2.296875 L 2.1875 -10.109375 C 2.1875 -10.867188 2.066406 -11.421875 1.828125 -11.765625 C 1.597656 -12.117188 1.1875 -12.296875 0.59375 -12.296875 L 0.59375 -12.8125 C 1.125 -12.757812 1.632812 -12.734375 2.125 -12.734375 C 3.601562 -12.734375 4.8125 -12.847656 5.75 -13.078125 L 5.75 -10.859375 C 6.488281 -12.390625 7.84375 -13.15625 9.8125 -13.15625 Z M 9.8125 -13.15625 "/></g></g></g><g fill="#ffffff" fill-opacity="1"><g transform="translate(32.833426, 46.540034)"><g><path d="M 5.625 -12.8125 L 8.546875 -12.8125 L 8.546875 -12.3125 L 5.625 -12.3125 L 5.625 -2.296875 C 5.625 -1.804688 5.707031 -1.457031 5.875 -1.25 C 6.050781 -1.039062 6.332031 -0.9375 6.71875 -0.9375 C 7.425781 -0.9375 7.988281 -1.429688 8.40625 -2.421875 L 8.828125 -2.203125 C 8.191406 -0.503906 7.054688 0.34375 5.421875 0.34375 C 4.335938 0.34375 3.515625 0.0625 2.953125 -0.5 C 2.597656 -0.84375 2.359375 -1.273438 2.234375 -1.796875 C 2.117188 -2.316406 2.0625 -3.03125 2.0625 -3.9375 L 2.0625 -12.3125 L -0.03125 -12.3125 L -0.03125 -12.8125 L 2.0625 -12.8125 L 2.0625 -16.078125 C 3.425781 -16.078125 4.613281 -16.34375 5.625 -16.875 Z M 5.625 -12.8125 "/></g></g></g><g fill="#ffffff" fill-opacity="1"><g transform="translate(40.813449, 46.540034)"><g><path d="M 7.875 -1.6875 C 9.226562 -1.6875 10.320312 -2.347656 11.15625 -3.671875 L 11.59375 -3.515625 C 11.269531 -2.441406 10.679688 -1.53125 9.828125 -0.78125 C 8.972656 -0.03125 7.910156 0.34375 6.640625 0.34375 C 4.890625 0.34375 3.5 -0.210938 2.46875 -1.328125 C 1.4375 -2.441406 0.921875 -4.085938 0.921875 -6.265625 C 0.921875 -8.492188 1.472656 -10.195312 2.578125 -11.375 C 3.679688 -12.5625 5.148438 -13.15625 6.984375 -13.15625 C 10.085938 -13.15625 11.640625 -11.320312 11.640625 -7.65625 L 4.6875 -7.65625 C 4.664062 -7.40625 4.65625 -7.019531 4.65625 -6.5 C 4.65625 -5.40625 4.804688 -4.492188 5.109375 -3.765625 C 5.421875 -3.035156 5.816406 -2.503906 6.296875 -2.171875 C 6.785156 -1.847656 7.3125 -1.6875 7.875 -1.6875 Z M 6.84375 -12.640625 C 6.25 -12.640625 5.753906 -12.269531 5.359375 -11.53125 C 4.972656 -10.800781 4.734375 -9.664062 4.640625 -8.125 L 8.53125 -8.125 C 8.5625 -9.4375 8.429688 -10.515625 8.140625 -11.359375 C 7.847656 -12.210938 7.414062 -12.640625 6.84375 -12.640625 Z M 6.84375 -12.640625 "/></g></g></g><g fill="#ffffff" fill-opacity="1"><g transform="translate(52.560437, 46.540034)"><g><path d="M 9.125 -13.15625 C 9.863281 -13.15625 10.421875 -12.929688 10.796875 -12.484375 C 11.179688 -12.046875 11.375 -11.507812 11.375 -10.875 C 11.375 -10.269531 11.195312 -9.769531 10.84375 -9.375 C 10.488281 -8.988281 10.019531 -8.796875 9.4375 -8.796875 C 8.875 -8.796875 8.425781 -8.941406 8.09375 -9.234375 C 7.769531 -9.523438 7.609375 -9.910156 7.609375 -10.390625 C 7.609375 -11.179688 7.972656 -11.820312 8.703125 -12.3125 C 8.628906 -12.332031 8.53125 -12.34375 8.40625 -12.34375 C 8.238281 -12.34375 8.101562 -12.328125 8 -12.296875 C 7.375 -12.191406 6.84375 -11.804688 6.40625 -11.140625 C 5.96875 -10.484375 5.75 -9.8125 5.75 -9.125 L 5.75 -2.546875 C 5.75 -1.785156 5.929688 -1.253906 6.296875 -0.953125 C 6.671875 -0.660156 7.265625 -0.515625 8.078125 -0.515625 L 8.078125 0 C 7.847656 0 7.660156 -0.0078125 7.515625 -0.03125 C 5.828125 -0.0703125 4.703125 -0.09375 4.140625 -0.09375 C 3.691406 -0.09375 2.675781 -0.0703125 1.09375 -0.03125 C 0.957031 -0.0078125 0.789062 0 0.59375 0 L 0.59375 -0.515625 C 1.1875 -0.515625 1.597656 -0.640625 1.828125 -0.890625 C 2.066406 -1.148438 2.1875 -1.617188 2.1875 -2.296875 L 2.1875 -10.109375 C 2.1875 -10.867188 2.066406 -11.421875 1.828125 -11.765625 C 1.597656 -12.117188 1.1875 -12.296875 0.59375 -12.296875 L 0.59375 -12.8125 C 1.125 -12.757812 1.632812 -12.734375 2.125 -12.734375 C 3.601562 -12.734375 4.8125 -12.847656 5.75 -13.078125 L 5.75 -10.78125 C 6.0625 -11.488281 6.515625 -12.0625 7.109375 -12.5 C 7.703125 -12.9375 8.375 -13.15625 9.125 -13.15625 Z M 9.125 -13.15625 "/></g></g></g><g fill="#ffffff" fill-opacity="1"><g transform="translate(63.390464, 46.540034)"><g><path d="M 10.65625 -12.734375 C 11.5 -12.734375 12.132812 -12.757812 12.5625 -12.8125 L 12.5625 -12.3125 C 12.21875 -12.21875 11.90625 -12.007812 11.625 -11.6875 C 11.351562 -11.363281 11.097656 -10.863281 10.859375 -10.1875 L 7.234375 0.046875 C 7.054688 0.0351562 6.785156 0.03125 6.421875 0.03125 C 6.066406 0.03125 5.800781 0.0351562 5.625 0.046875 L 1.21875 -10.90625 C 0.988281 -11.46875 0.753906 -11.835938 0.515625 -12.015625 C 0.273438 -12.203125 0.03125 -12.296875 -0.21875 -12.296875 L -0.21875 -12.8125 C 0.9375 -12.726562 2.109375 -12.6875 3.296875 -12.6875 C 4.335938 -12.6875 5.410156 -12.726562 6.515625 -12.8125 L 6.515625 -12.296875 C 5.953125 -12.296875 5.550781 -12.253906 5.3125 -12.171875 C 5.070312 -12.097656 4.953125 -11.898438 4.953125 -11.578125 C 4.953125 -11.441406 4.992188 -11.234375 5.078125 -10.953125 L 7.90625 -3.4375 L 9.6875 -8.34375 C 9.957031 -9.125 10.09375 -9.796875 10.09375 -10.359375 C 10.09375 -11.566406 9.488281 -12.21875 8.28125 -12.3125 L 8.28125 -12.8125 C 9.039062 -12.757812 9.832031 -12.734375 10.65625 -12.734375 Z M 10.65625 -12.734375 "/></g></g></g><g fill="#ffffff" fill-opacity="1"><g transform="translate(75.236581, 46.540034)"><g><path d="M 3.8125 -19.203125 C 4.507812 -19.203125 5.054688 -19.03125 5.453125 -18.6875 C 5.859375 -18.351562 6.0625 -17.890625 6.0625 -17.296875 C 6.0625 -16.703125 5.859375 -16.234375 5.453125 -15.890625 C 5.054688 -15.554688 4.507812 -15.390625 3.8125 -15.390625 C 3.113281 -15.390625 2.5625 -15.554688 2.15625 -15.890625 C 1.757812 -16.234375 1.5625 -16.703125 1.5625 -17.296875 C 1.5625 -17.890625 1.757812 -18.351562 2.15625 -18.6875 C 2.5625 -19.03125 3.113281 -19.203125 3.8125 -19.203125 Z M 5.75 -2.296875 C 5.75 -1.617188 5.867188 -1.148438 6.109375 -0.890625 C 6.347656 -0.640625 6.753906 -0.515625 7.328125 -0.515625 L 7.328125 0 C 5.679688 -0.0625 4.585938 -0.09375 4.046875 -0.09375 C 3.523438 -0.09375 2.375 -0.0625 0.59375 0 L 0.59375 -0.515625 C 1.1875 -0.515625 1.597656 -0.640625 1.828125 -0.890625 C 2.066406 -1.148438 2.1875 -1.617188 2.1875 -2.296875 L 2.1875 -10.109375 C 2.1875 -10.867188 2.066406 -11.421875 1.828125 -11.765625 C 1.597656 -12.117188 1.1875 -12.296875 0.59375 -12.296875 L 0.59375 -12.8125 C 1.125 -12.757812 1.632812 -12.734375 2.125 -12.734375 C 3.601562 -12.734375 4.8125 -12.847656 5.75 -13.078125 Z M 5.75 -2.296875 "/></g></g></g><g fill="#ffffff" fill-opacity="1"><g transform="translate(82.299639, 46.540034)"><g><path d="M 7.875 -1.6875 C 9.226562 -1.6875 10.320312 -2.347656 11.15625 -3.671875 L 11.59375 -3.515625 C 11.269531 -2.441406 10.679688 -1.53125 9.828125 -0.78125 C 8.972656 -0.03125 7.910156 0.34375 6.640625 0.34375 C 4.890625 0.34375 3.5 -0.210938 2.46875 -1.328125 C 1.4375 -2.441406 0.921875 -4.085938 0.921875 -6.265625 C 0.921875 -8.492188 1.472656 -10.195312 2.578125 -11.375 C 3.679688 -12.5625 5.148438 -13.15625 6.984375 -13.15625 C 10.085938 -13.15625 11.640625 -11.320312 11.640625 -7.65625 L 4.6875 -7.65625 C 4.664062 -7.40625 4.65625 -7.019531 4.65625 -6.5 C 4.65625 -5.40625 4.804688 -4.492188 5.109375 -3.765625 C 5.421875 -3.035156 5.816406 -2.503906 6.296875 -2.171875 C 6.785156 -1.847656 7.3125 -1.6875 7.875 -1.6875 Z M 6.84375 -12.640625 C 6.25 -12.640625 5.753906 -12.269531 5.359375 -11.53125 C 4.972656 -10.800781 4.734375 -9.664062 4.640625 -8.125 L 8.53125 -8.125 C 8.5625 -9.4375 8.429688 -10.515625 8.140625 -11.359375 C 7.847656 -12.210938 7.414062 -12.640625 6.84375 -12.640625 Z M 6.84375 -12.640625 "/></g></g></g><g fill="#ffffff" fill-opacity="1"><g transform="translate(94.046628, 46.540034)"><g><path d="M 17.625 -12.734375 C 18.46875 -12.734375 19.09375 -12.757812 19.5 -12.8125 L 19.5 -12.3125 C 19.15625 -12.21875 18.84375 -12.007812 18.5625 -11.6875 C 18.28125 -11.375 18.03125 -10.875 17.8125 -10.1875 L 14.515625 0.046875 C 14.335938 0.0351562 14.066406 0.03125 13.703125 0.03125 C 13.359375 0.03125 13.09375 0.0351562 12.90625 0.046875 L 9.546875 -9.140625 L 6.796875 0.046875 C 6.628906 0.0351562 6.363281 0.03125 6 0.03125 C 5.632812 0.03125 5.359375 0.0351562 5.171875 0.046875 L 1.265625 -10.90625 C 1.066406 -11.476562 0.84375 -11.851562 0.59375 -12.03125 C 0.34375 -12.207031 0.0859375 -12.296875 -0.171875 -12.296875 L -0.171875 -12.8125 C 0.898438 -12.707031 2.070312 -12.65625 3.34375 -12.65625 C 4.164062 -12.65625 5.238281 -12.707031 6.5625 -12.8125 L 6.5625 -12.296875 C 6.019531 -12.296875 5.628906 -12.253906 5.390625 -12.171875 C 5.148438 -12.085938 5.03125 -11.890625 5.03125 -11.578125 C 5.03125 -11.359375 5.070312 -11.132812 5.15625 -10.90625 L 7.390625 -3.890625 L 10.09375 -12.84375 L 11 -12.8125 L 11.890625 -12.84375 L 15.109375 -3.375 L 16.671875 -8.34375 C 16.910156 -9.125 17.03125 -9.753906 17.03125 -10.234375 C 17.03125 -11.523438 16.375 -12.21875 15.0625 -12.3125 L 15.0625 -12.8125 C 15.84375 -12.757812 16.695312 -12.734375 17.625 -12.734375 Z M 17.625 -12.734375 "/></g></g></g><g fill="#ffffff" fill-opacity="1"><g transform="translate(112.80711, 46.540034)"><g><path d="M 5.5 -13.15625 C 6.125 -13.15625 6.703125 -13.078125 7.234375 -12.921875 C 7.765625 -12.765625 8.171875 -12.585938 8.453125 -12.390625 C 8.617188 -12.273438 8.765625 -12.21875 8.890625 -12.21875 C 9.046875 -12.21875 9.175781 -12.296875 9.28125 -12.453125 C 9.382812 -12.609375 9.453125 -12.835938 9.484375 -13.140625 L 10.015625 -13.140625 C 9.941406 -12.296875 9.90625 -10.835938 9.90625 -8.765625 L 9.390625 -8.765625 C 9.242188 -9.859375 8.914062 -10.769531 8.40625 -11.5 C 7.90625 -12.238281 7.175781 -12.609375 6.21875 -12.609375 C 5.726562 -12.609375 5.320312 -12.46875 5 -12.1875 C 4.675781 -11.90625 4.515625 -11.519531 4.515625 -11.03125 C 4.515625 -10.46875 4.703125 -9.984375 5.078125 -9.578125 C 5.460938 -9.171875 6.054688 -8.679688 6.859375 -8.109375 L 7.578125 -7.578125 C 8.585938 -6.816406 9.332031 -6.140625 9.8125 -5.546875 C 10.289062 -4.953125 10.53125 -4.210938 10.53125 -3.328125 C 10.53125 -2.597656 10.316406 -1.953125 9.890625 -1.390625 C 9.472656 -0.828125 8.910156 -0.394531 8.203125 -0.09375 C 7.492188 0.195312 6.707031 0.34375 5.84375 0.34375 C 4.9375 0.34375 4.160156 0.171875 3.515625 -0.171875 C 2.984375 -0.429688 2.601562 -0.601562 2.375 -0.6875 C 2.207031 -0.738281 2.0625 -0.6875 1.9375 -0.53125 C 1.820312 -0.375 1.726562 -0.140625 1.65625 0.171875 L 1.140625 0.171875 C 1.203125 -0.765625 1.234375 -2.414062 1.234375 -4.78125 L 1.765625 -4.78125 C 2.085938 -1.738281 3.203125 -0.21875 5.109375 -0.21875 C 5.585938 -0.21875 5.992188 -0.363281 6.328125 -0.65625 C 6.671875 -0.945312 6.84375 -1.390625 6.84375 -1.984375 C 6.84375 -2.441406 6.738281 -2.851562 6.53125 -3.21875 C 6.320312 -3.582031 6.0625 -3.90625 5.75 -4.1875 C 5.4375 -4.46875 4.96875 -4.859375 4.34375 -5.359375 C 3.59375 -5.953125 3.023438 -6.425781 2.640625 -6.78125 C 2.253906 -7.144531 1.921875 -7.578125 1.640625 -8.078125 C 1.367188 -8.578125 1.234375 -9.128906 1.234375 -9.734375 C 1.234375 -10.796875 1.644531 -11.628906 2.46875 -12.234375 C 3.300781 -12.847656 4.3125 -13.15625 5.5 -13.15625 Z M 5.5 -13.15625 "/></g></g></g><g fill="#ffffff" fill-opacity="1"><g transform="translate(123.513226, 46.540034)"><g/></g></g><g fill="#ffffff" fill-opacity="1"><g transform="translate(128.544109, 46.540034)"><g><path d="M 22.15625 -17.046875 C 21.59375 -17.015625 21.1875 -16.945312 20.9375 -16.84375 C 20.6875 -16.75 20.515625 -16.5625 20.421875 -16.28125 C 20.335938 -16 20.296875 -15.546875 20.296875 -14.921875 L 20.296875 -2.625 C 20.296875 -2 20.335938 -1.546875 20.421875 -1.265625 C 20.515625 -0.984375 20.691406 -0.789062 20.953125 -0.6875 C 21.210938 -0.59375 21.613281 -0.53125 22.15625 -0.5 L 22.15625 0 C 21.25 -0.0507812 19.953125 -0.078125 18.265625 -0.078125 C 16.492188 -0.078125 15.1875 -0.0507812 14.34375 0 L 14.34375 -0.5 C 14.9375 -0.53125 15.367188 -0.59375 15.640625 -0.6875 C 15.921875 -0.789062 16.109375 -0.984375 16.203125 -1.265625 C 16.304688 -1.546875 16.359375 -2 16.359375 -2.625 L 16.359375 -15.59375 L 10.390625 0.03125 L 9.984375 0.03125 L 3.296875 -15.9375 L 3.296875 -4.0625 C 3.296875 -3.09375 3.34375 -2.378906 3.4375 -1.921875 C 3.539062 -1.460938 3.753906 -1.128906 4.078125 -0.921875 C 4.410156 -0.722656 4.953125 -0.582031 5.703125 -0.5 L 5.703125 0 C 5.054688 -0.0507812 4.160156 -0.078125 3.015625 -0.078125 C 2.109375 -0.078125 1.394531 -0.0507812 0.875 0 L 0.875 -0.5 C 1.414062 -0.582031 1.8125 -0.722656 2.0625 -0.921875 C 2.320312 -1.117188 2.492188 -1.429688 2.578125 -1.859375 C 2.671875 -2.285156 2.71875 -2.921875 2.71875 -3.765625 L 2.71875 -14.921875 C 2.71875 -15.546875 2.671875 -16 2.578125 -16.28125 C 2.492188 -16.5625 2.320312 -16.75 2.0625 -16.84375 C 1.8125 -16.945312 1.414062 -17.015625 0.875 -17.046875 L 0.875 -17.546875 C 1.394531 -17.492188 2.109375 -17.46875 3.015625 -17.46875 C 4.535156 -17.46875 5.84375 -17.492188 6.9375 -17.546875 L 11.9375 -5.484375 L 16.5 -17.46875 L 18.265625 -17.46875 C 19.953125 -17.46875 21.25 -17.492188 22.15625 -17.546875 Z M 22.15625 -17.046875 "/></g></g></g><g fill="#ffffff" fill-opacity="1"><g transform="translate(150.774167, 46.540034)"><g><path d="M 3.859375 0.171875 C 2.804688 0.171875 2.019531 -0.0976562 1.5 -0.640625 C 0.976562 -1.191406 0.71875 -1.910156 0.71875 -2.796875 C 0.71875 -3.546875 0.910156 -4.160156 1.296875 -4.640625 C 1.691406 -5.128906 2.164062 -5.503906 2.71875 -5.765625 C 3.269531 -6.035156 3.972656 -6.316406 4.828125 -6.609375 C 5.734375 -6.929688 6.394531 -7.21875 6.8125 -7.46875 C 7.238281 -7.726562 7.453125 -8.082031 7.453125 -8.53125 L 7.453125 -10.453125 C 7.453125 -11.148438 7.289062 -11.691406 6.96875 -12.078125 C 6.65625 -12.460938 6.160156 -12.65625 5.484375 -12.65625 C 4.679688 -12.65625 4.078125 -12.457031 3.671875 -12.0625 C 4.128906 -11.90625 4.484375 -11.660156 4.734375 -11.328125 C 4.992188 -10.992188 5.125 -10.601562 5.125 -10.15625 C 5.125 -9.59375 4.929688 -9.144531 4.546875 -8.8125 C 4.171875 -8.488281 3.710938 -8.328125 3.171875 -8.328125 C 2.585938 -8.328125 2.140625 -8.507812 1.828125 -8.875 C 1.515625 -9.238281 1.359375 -9.691406 1.359375 -10.234375 C 1.359375 -10.691406 1.46875 -11.082031 1.6875 -11.40625 C 1.914062 -11.726562 2.257812 -12.03125 2.71875 -12.3125 C 3.164062 -12.582031 3.71875 -12.789062 4.375 -12.9375 C 5.03125 -13.082031 5.742188 -13.15625 6.515625 -13.15625 C 7.328125 -13.15625 8.03125 -13.070312 8.625 -12.90625 C 9.21875 -12.738281 9.710938 -12.457031 10.109375 -12.0625 C 10.472656 -11.695312 10.71875 -11.25 10.84375 -10.71875 C 10.96875 -10.195312 11.03125 -9.484375 11.03125 -8.578125 L 11.03125 -1.828125 C 11.03125 -1.429688 11.066406 -1.148438 11.140625 -0.984375 C 11.210938 -0.828125 11.359375 -0.75 11.578125 -0.75 C 11.816406 -0.75 12.113281 -0.890625 12.46875 -1.171875 L 12.71875 -0.75 C 11.96875 -0.132812 11.054688 0.171875 9.984375 0.171875 C 9.078125 0.171875 8.441406 -0.0078125 8.078125 -0.375 C 7.710938 -0.738281 7.523438 -1.222656 7.515625 -1.828125 C 6.679688 -0.492188 5.460938 0.171875 3.859375 0.171875 Z M 5.78125 -1.40625 C 6.414062 -1.40625 6.972656 -1.742188 7.453125 -2.421875 L 7.453125 -7.515625 C 7.253906 -7.179688 6.832031 -6.816406 6.1875 -6.421875 C 5.550781 -6.003906 5.066406 -5.585938 4.734375 -5.171875 C 4.398438 -4.765625 4.234375 -4.171875 4.234375 -3.390625 C 4.234375 -2.710938 4.375 -2.210938 4.65625 -1.890625 C 4.9375 -1.566406 5.3125 -1.40625 5.78125 -1.40625 Z M 5.78125 -1.40625 "/></g></g></g><g fill="#ffffff" fill-opacity="1"><g transform="translate(162.868112, 46.540034)"><g><path d="M 9.8125 -13.15625 C 11.070312 -13.15625 11.984375 -12.832031 12.546875 -12.1875 C 12.816406 -11.875 13.007812 -11.46875 13.125 -10.96875 C 13.25 -10.476562 13.3125 -9.8125 13.3125 -8.96875 L 13.3125 -2.296875 C 13.3125 -1.617188 13.429688 -1.148438 13.671875 -0.890625 C 13.910156 -0.640625 14.316406 -0.515625 14.890625 -0.515625 L 14.890625 0 C 13.242188 -0.0625 12.15625 -0.09375 11.625 -0.09375 C 11.125 -0.09375 10.050781 -0.0625 8.40625 0 L 8.40625 -0.515625 C 8.894531 -0.515625 9.238281 -0.640625 9.4375 -0.890625 C 9.632812 -1.148438 9.734375 -1.617188 9.734375 -2.296875 L 9.734375 -10.015625 C 9.734375 -10.691406 9.617188 -11.203125 9.390625 -11.546875 C 9.171875 -11.890625 8.773438 -12.0625 8.203125 -12.0625 C 7.523438 -12.0625 6.945312 -11.785156 6.46875 -11.234375 C 5.988281 -10.679688 5.75 -10 5.75 -9.1875 L 5.75 -2.296875 C 5.75 -1.617188 5.847656 -1.148438 6.046875 -0.890625 C 6.242188 -0.640625 6.59375 -0.515625 7.09375 -0.515625 L 7.09375 0 C 5.570312 -0.0625 4.546875 -0.09375 4.015625 -0.09375 C 3.515625 -0.09375 2.375 -0.0625 0.59375 0 L 0.59375 -0.515625 C 1.1875 -0.515625 1.597656 -0.640625 1.828125 -0.890625 C 2.066406 -1.148438 2.1875 -1.617188 2.1875 -2.296875 L 2.1875 -10.109375 C 2.1875 -10.867188 2.066406 -11.421875 1.828125 -11.765625 C 1.597656 -12.117188 1.1875 -12.296875 0.59375 -12.296875 L 0.59375 -12.8125 C 1.125 -12.757812 1.632812 -12.734375 2.125 -12.734375 C 3.601562 -12.734375 4.8125 -12.847656 5.75 -13.078125 L 5.75 -10.859375 C 6.488281 -12.390625 7.84375 -13.15625 9.8125 -13.15625 Z M 9.8125 -13.15625 "/></g></g></g><g fill="#ffffff" fill-opacity="1"><g transform="translate(177.34119, 46.540034)"><g><path d="M 3.859375 0.171875 C 2.804688 0.171875 2.019531 -0.0976562 1.5 -0.640625 C 0.976562 -1.191406 0.71875 -1.910156 0.71875 -2.796875 C 0.71875 -3.546875 0.910156 -4.160156 1.296875 -4.640625 C 1.691406 -5.128906 2.164062 -5.503906 2.71875 -5.765625 C 3.269531 -6.035156 3.972656 -6.316406 4.828125 -6.609375 C 5.734375 -6.929688 6.394531 -7.21875 6.8125 -7.46875 C 7.238281 -7.726562 7.453125 -8.082031 7.453125 -8.53125 L 7.453125 -10.453125 C 7.453125 -11.148438 7.289062 -11.691406 6.96875 -12.078125 C 6.65625 -12.460938 6.160156 -12.65625 5.484375 -12.65625 C 4.679688 -12.65625 4.078125 -12.457031 3.671875 -12.0625 C 4.128906 -11.90625 4.484375 -11.660156 4.734375 -11.328125 C 4.992188 -10.992188 5.125 -10.601562 5.125 -10.15625 C 5.125 -9.59375 4.929688 -9.144531 4.546875 -8.8125 C 4.171875 -8.488281 3.710938 -8.328125 3.171875 -8.328125 C 2.585938 -8.328125 2.140625 -8.507812 1.828125 -8.875 C 1.515625 -9.238281 1.359375 -9.691406 1.359375 -10.234375 C 1.359375 -10.691406 1.46875 -11.082031 1.6875 -11.40625 C 1.914062 -11.726562 2.257812 -12.03125 2.71875 -12.3125 C 3.164062 -12.582031 3.71875 -12.789062 4.375 -12.9375 C 5.03125 -13.082031 5.742188 -13.15625 6.515625 -13.15625 C 7.328125 -13.15625 8.03125 -13.070312 8.625 -12.90625 C 9.21875 -12.738281 9.710938 -12.457031 10.109375 -12.0625 C 10.472656 -11.695312 10.71875 -11.25 10.84375 -10.71875 C 10.96875 -10.195312 11.03125 -9.484375 11.03125 -8.578125 L 11.03125 -1.828125 C 11.03125 -1.429688 11.066406 -1.148438 11.140625 -0.984375 C 11.210938 -0.828125 11.359375 -0.75 11.578125 -0.75 C 11.816406 -0.75 12.113281 -0.890625 12.46875 -1.171875 L 12.71875 -0.75 C 11.96875 -0.132812 11.054688 0.171875 9.984375 0.171875 C 9.078125 0.171875 8.441406 -0.0078125 8.078125 -0.375 C 7.710938 -0.738281 7.523438 -1.222656 7.515625 -1.828125 C 6.679688 -0.492188 5.460938 0.171875 3.859375 0.171875 Z M 5.78125 -1.40625 C 6.414062 -1.40625 6.972656 -1.742188 7.453125 -2.421875 L 7.453125 -7.515625 C 7.253906 -7.179688 6.832031 -6.816406 6.1875 -6.421875 C 5.550781 -6.003906 5.066406 -5.585938 4.734375 -5.171875 C 4.398438 -4.765625 4.234375 -4.171875 4.234375 -3.390625 C 4.234375 -2.710938 4.375 -2.210938 4.65625 -1.890625 C 4.9375 -1.566406 5.3125 -1.40625 5.78125 -1.40625 Z M 5.78125 -1.40625 "/></g></g></g><g fill="#ffffff" fill-opacity="1"><g transform="translate(189.435135, 46.540034)"><g><path d="M 12.34375 -10.4375 C 12.007812 -10.4375 11.726562 -10.546875 11.5 -10.765625 C 11.269531 -10.992188 11.15625 -11.3125 11.15625 -11.71875 C 11.15625 -12.113281 11.253906 -12.519531 11.453125 -12.9375 C 11.054688 -12.769531 10.726562 -12.582031 10.46875 -12.375 C 10.21875 -12.164062 10 -11.90625 9.8125 -11.59375 C 10.320312 -10.988281 10.578125 -10.195312 10.578125 -9.21875 C 10.578125 -7.914062 10.125 -6.929688 9.21875 -6.265625 C 8.320312 -5.609375 7.132812 -5.28125 5.65625 -5.28125 L 5.203125 -5.28125 C 4.523438 -4.882812 4.1875 -4.445312 4.1875 -3.96875 C 4.1875 -3.4375 4.515625 -3.171875 5.171875 -3.171875 L 7.875 -3.171875 C 9.332031 -3.171875 10.492188 -2.898438 11.359375 -2.359375 C 12.222656 -1.828125 12.65625 -1.007812 12.65625 0.09375 C 12.65625 0.9375 12.382812 1.703125 11.84375 2.390625 C 11.3125 3.078125 10.5 3.625 9.40625 4.03125 C 8.320312 4.445312 6.988281 4.65625 5.40625 4.65625 C 3.800781 4.65625 2.515625 4.453125 1.546875 4.046875 C 0.578125 3.640625 0.09375 3.054688 0.09375 2.296875 C 0.09375 1.785156 0.320312 1.328125 0.78125 0.921875 C 1.25 0.523438 1.9375 0.207031 2.84375 -0.03125 L 3.078125 0.375 C 2.484375 0.863281 2.1875 1.429688 2.1875 2.078125 C 2.1875 2.773438 2.5 3.304688 3.125 3.671875 C 3.75 4.046875 4.613281 4.234375 5.71875 4.234375 C 6.875 4.234375 7.8125 4 8.53125 3.53125 C 9.25 3.070312 9.609375 2.425781 9.609375 1.59375 C 9.609375 1.039062 9.40625 0.609375 9 0.296875 C 8.601562 -0.015625 7.898438 -0.171875 6.890625 -0.171875 L 5.359375 -0.171875 C 4.296875 -0.171875 3.46875 -0.347656 2.875 -0.703125 C 2.28125 -1.054688 1.984375 -1.597656 1.984375 -2.328125 C 1.984375 -2.941406 2.195312 -3.488281 2.625 -3.96875 C 3.050781 -4.445312 3.703125 -4.910156 4.578125 -5.359375 C 3.390625 -5.503906 2.445312 -5.898438 1.75 -6.546875 C 1.0625 -7.191406 0.71875 -8.082031 0.71875 -9.21875 C 0.71875 -10.519531 1.164062 -11.5 2.0625 -12.15625 C 2.96875 -12.820312 4.164062 -13.15625 5.65625 -13.15625 C 7.300781 -13.15625 8.5625 -12.769531 9.4375 -12 C 9.75 -12.4375 10.132812 -12.785156 10.59375 -13.046875 C 11.0625 -13.316406 11.535156 -13.453125 12.015625 -13.453125 C 12.515625 -13.453125 12.90625 -13.304688 13.1875 -13.015625 C 13.476562 -12.734375 13.625 -12.359375 13.625 -11.890625 C 13.625 -11.429688 13.492188 -11.070312 13.234375 -10.8125 C 12.984375 -10.5625 12.6875 -10.4375 12.34375 -10.4375 Z M 5.65625 -5.71875 C 6.113281 -5.71875 6.460938 -5.984375 6.703125 -6.515625 C 6.941406 -7.046875 7.0625 -7.945312 7.0625 -9.21875 C 7.0625 -10.488281 6.941406 -11.390625 6.703125 -11.921875 C 6.460938 -12.453125 6.113281 -12.71875 5.65625 -12.71875 C 5.1875 -12.71875 4.832031 -12.453125 4.59375 -11.921875 C 4.351562 -11.390625 4.234375 -10.488281 4.234375 -9.21875 C 4.234375 -7.945312 4.351562 -7.046875 4.59375 -6.515625 C 4.832031 -5.984375 5.1875 -5.71875 5.65625 -5.71875 Z M 5.65625 -5.71875 "/></g></g></g><g fill="#ffffff" fill-opacity="1"><g transform="translate(202.396468, 46.540034)"><g><path d="M 7.875 -1.6875 C 9.226562 -1.6875 10.320312 -2.347656 11.15625 -3.671875 L 11.59375 -3.515625 C 11.269531 -2.441406 10.679688 -1.53125 9.828125 -0.78125 C 8.972656 -0.03125 7.910156 0.34375 6.640625 0.34375 C 4.890625 0.34375 3.5 -0.210938 2.46875 -1.328125 C 1.4375 -2.441406 0.921875 -4.085938 0.921875 -6.265625 C 0.921875 -8.492188 1.472656 -10.195312 2.578125 -11.375 C 3.679688 -12.5625 5.148438 -13.15625 6.984375 -13.15625 C 10.085938 -13.15625 11.640625 -11.320312 11.640625 -7.65625 L 4.6875 -7.65625 C 4.664062 -7.40625 4.65625 -7.019531 4.65625 -6.5 C 4.65625 -5.40625 4.804688 -4.492188 5.109375 -3.765625 C 5.421875 -3.035156 5.816406 -2.503906 6.296875 -2.171875 C 6.785156 -1.847656 7.3125 -1.6875 7.875 -1.6875 Z M 6.84375 -12.640625 C 6.25 -12.640625 5.753906 -12.269531 5.359375 -11.53125 C 4.972656 -10.800781 4.734375 -9.664062 4.640625 -8.125 L 8.53125 -8.125 C 8.5625 -9.4375 8.429688 -10.515625 8.140625 -11.359375 C 7.847656 -12.210938 7.414062 -12.640625 6.84375 -12.640625 Z M 6.84375 -12.640625 "/></g></g></g><g fill="#ffffff" fill-opacity="1"><g transform="translate(214.143458, 46.540034)"><g><path d="M 9.125 -13.15625 C 9.863281 -13.15625 10.421875 -12.929688 10.796875 -12.484375 C 11.179688 -12.046875 11.375 -11.507812 11.375 -10.875 C 11.375 -10.269531 11.195312 -9.769531 10.84375 -9.375 C 10.488281 -8.988281 10.019531 -8.796875 9.4375 -8.796875 C 8.875 -8.796875 8.425781 -8.941406 8.09375 -9.234375 C 7.769531 -9.523438 7.609375 -9.910156 7.609375 -10.390625 C 7.609375 -11.179688 7.972656 -11.820312 8.703125 -12.3125 C 8.628906 -12.332031 8.53125 -12.34375 8.40625 -12.34375 C 8.238281 -12.34375 8.101562 -12.328125 8 -12.296875 C 7.375 -12.191406 6.84375 -11.804688 6.40625 -11.140625 C 5.96875 -10.484375 5.75 -9.8125 5.75 -9.125 L 5.75 -2.546875 C 5.75 -1.785156 5.929688 -1.253906 6.296875 -0.953125 C 6.671875 -0.660156 7.265625 -0.515625 8.078125 -0.515625 L 8.078125 0 C 7.847656 0 7.660156 -0.0078125 7.515625 -0.03125 C 5.828125 -0.0703125 4.703125 -0.09375 4.140625 -0.09375 C 3.691406 -0.09375 2.675781 -0.0703125 1.09375 -0.03125 C 0.957031 -0.0078125 0.789062 0 0.59375 0 L 0.59375 -0.515625 C 1.1875 -0.515625 1.597656 -0.640625 1.828125 -0.890625 C 2.066406 -1.148438 2.1875 -1.617188 2.1875 -2.296875 L 2.1875 -10.109375 C 2.1875 -10.867188 2.066406 -11.421875 1.828125 -11.765625 C 1.597656 -12.117188 1.1875 -12.296875 0.59375 -12.296875 L 0.59375 -12.8125 C 1.125 -12.757812 1.632812 -12.734375 2.125 -12.734375 C 3.601562 -12.734375 4.8125 -12.847656 5.75 -13.078125 L 5.75 -10.78125 C 6.0625 -11.488281 6.515625 -12.0625 7.109375 -12.5 C 7.703125 -12.9375 8.375 -13.15625 9.125 -13.15625 Z M 9.125 -13.15625 "/></g></g></g><g clip-path="url(#830da5156c)"><path fill="#060606" d="M 27.949219 58.785156 L 207.042969 58.785156 L 207.042969 75.726562 L 27.949219 75.726562 Z M 27.949219 58.785156 " fill-opacity="1" fill-rule="nonzero"/></g><g fill="#fbfaf9" fill-opacity="1"><g transform="translate(50.538507, 70.168217)"><g><path d="M 4.796875 -1.390625 L 1.6875 -1.390625 L 1.09375 0 L 0.015625 0 L 2.734375 -6.1875 L 3.8125 -6.1875 L 6.5 0 L 5.390625 0 Z M 4.40625 -2.328125 L 3.234375 -5.0625 L 2.078125 -2.328125 Z M 4.40625 -2.328125 "/></g></g></g><g fill="#fbfaf9" fill-opacity="1"><g transform="translate(61.909933, 70.168217)"><g><path d="M 2.84375 -6.21875 C 3.644531 -6.21875 4.363281 -6.007812 5 -5.59375 L 4.578125 -4.671875 C 3.941406 -5.054688 3.335938 -5.25 2.765625 -5.25 C 2.453125 -5.25 2.203125 -5.191406 2.015625 -5.078125 C 1.835938 -4.960938 1.75 -4.800781 1.75 -4.59375 C 1.75 -4.394531 1.832031 -4.222656 2 -4.078125 C 2.164062 -3.929688 2.375 -3.820312 2.625 -3.75 C 2.875 -3.6875 3.140625 -3.601562 3.421875 -3.5 C 3.710938 -3.394531 3.976562 -3.285156 4.21875 -3.171875 C 4.46875 -3.054688 4.671875 -2.875 4.828125 -2.625 C 4.992188 -2.382812 5.078125 -2.09375 5.078125 -1.75 C 5.078125 -1.207031 4.859375 -0.773438 4.421875 -0.453125 C 3.992188 -0.128906 3.4375 0.03125 2.75 0.03125 C 2.28125 0.03125 1.820312 -0.0546875 1.375 -0.234375 C 0.9375 -0.410156 0.554688 -0.644531 0.234375 -0.9375 L 0.6875 -1.84375 C 0.988281 -1.550781 1.328125 -1.328125 1.703125 -1.171875 C 2.078125 -1.015625 2.429688 -0.9375 2.765625 -0.9375 C 3.128906 -0.9375 3.410156 -1.003906 3.609375 -1.140625 C 3.816406 -1.273438 3.921875 -1.457031 3.921875 -1.6875 C 3.921875 -1.90625 3.835938 -2.085938 3.671875 -2.234375 C 3.515625 -2.378906 3.3125 -2.484375 3.0625 -2.546875 C 2.8125 -2.617188 2.539062 -2.703125 2.25 -2.796875 C 1.96875 -2.890625 1.703125 -2.988281 1.453125 -3.09375 C 1.203125 -3.207031 0.992188 -3.382812 0.828125 -3.625 C 0.671875 -3.863281 0.59375 -4.15625 0.59375 -4.5 C 0.59375 -5.019531 0.796875 -5.4375 1.203125 -5.75 C 1.617188 -6.0625 2.164062 -6.21875 2.84375 -6.21875 Z M 2.84375 -6.21875 "/></g></g></g><g fill="#fbfaf9" fill-opacity="1"><g transform="translate(72.257596, 70.168217)"><g><path d="M 4.796875 -1.390625 L 1.6875 -1.390625 L 1.09375 0 L 0.015625 0 L 2.734375 -6.1875 L 3.8125 -6.1875 L 6.5 0 L 5.390625 0 Z M 4.40625 -2.328125 L 3.234375 -5.0625 L 2.078125 -2.328125 Z M 4.40625 -2.328125 "/></g></g></g><g fill="#fbfaf9" fill-opacity="1"><g transform="translate(83.629023, 70.168217)"><g><path d="M 4.953125 -5.25 L 1.859375 -5.25 L 1.859375 -3.453125 L 4.65625 -3.453125 L 4.65625 -2.53125 L 1.859375 -2.53125 L 1.859375 0 L 0.8125 0 L 0.8125 -6.1875 L 4.96875 -6.1875 Z M 4.953125 -5.25 "/></g></g></g><g fill="#fbfaf9" fill-opacity="1"><g transform="translate(93.561882, 70.168217)"><g/></g></g><g fill="#fbfaf9" fill-opacity="1"><g transform="translate(100.697049, 70.168217)"><g><path d="M 7.171875 0 L 6.09375 0 L 4.640625 -4.8125 L 3.15625 0 L 2.078125 0 L 0.03125 -6.1875 L 1.140625 -6.1875 L 2.65625 -1.15625 L 4.140625 -6.171875 L 5.171875 -6.1875 L 6.671875 -1.15625 L 8.15625 -6.1875 L 9.234375 -6.1875 Z M 7.171875 0 "/></g></g></g><g fill="#fbfaf9" fill-opacity="1"><g transform="translate(114.69848, 70.168217)"><g><path d="M 5.21875 -5.25 L 1.859375 -5.25 L 1.859375 -3.578125 L 4.875 -3.578125 L 4.875 -2.640625 L 1.859375 -2.640625 L 1.859375 -0.9375 L 5.328125 -0.9375 L 5.328125 0 L 0.8125 0 L 0.8125 -6.1875 L 5.21875 -6.1875 Z M 5.21875 -5.25 "/></g></g></g><g fill="#fbfaf9" fill-opacity="1"><g transform="translate(125.346207, 70.168217)"><g><path d="M 1.859375 0 L 0.8125 0 L 0.8125 -6.1875 L 1.859375 -6.1875 Z M 1.859375 0 "/></g></g></g><g fill="#fbfaf9" fill-opacity="1"><g transform="translate(132.869701, 70.168217)"><g><path d="M 5.03125 -5.25 L 3.078125 -5.25 L 3.078125 0 L 2.03125 0 L 2.03125 -5.25 L 0.078125 -5.25 L 0.078125 -6.1875 L 5.03125 -6.1875 Z M 5.03125 -5.25 "/></g></g></g><g fill="#fbfaf9" fill-opacity="1"><g transform="translate(142.837867, 70.168217)"><g><path d="M 5.5 -5.421875 L 1.734375 -0.9375 L 5.546875 -0.9375 L 5.546875 0 L 0.328125 0 L 0.328125 -0.75 L 4.09375 -5.25 L 0.4375 -5.25 L 0.4375 -6.1875 L 5.5 -6.1875 Z M 5.5 -5.421875 "/></g></g></g><g fill="#fbfaf9" fill-opacity="1"><g transform="translate(153.573857, 70.168217)"><g><path d="M 7.34375 0 L 6.375 0 L 6.375 -4.609375 L 4.421875 -0.640625 L 3.75 -0.640625 L 1.796875 -4.609375 L 1.796875 0 L 0.8125 0 L 0.8125 -6.1875 L 2.046875 -6.1875 L 4.09375 -2.078125 L 6.125 -6.1875 L 7.34375 -6.1875 Z M 7.34375 0 "/></g></g></g><g fill="#fbfaf9" fill-opacity="1"><g transform="translate(166.595655, 70.168217)"><g><path d="M 4.796875 -1.390625 L 1.6875 -1.390625 L 1.09375 0 L 0.015625 0 L 2.734375 -6.1875 L 3.8125 -6.1875 L 6.5 0 L 5.390625 0 Z M 4.40625 -2.328125 L 3.234375 -5.0625 L 2.078125 -2.328125 Z M 4.40625 -2.328125 "/></g></g></g><g fill="#fbfaf9" fill-opacity="1"><g transform="translate(177.967084, 70.168217)"><g><path d="M 6.171875 0 L 5.140625 0 L 1.859375 -4.4375 L 1.859375 0 L 0.8125 0 L 0.8125 -6.1875 L 1.84375 -6.1875 L 5.140625 -1.734375 L 5.140625 -6.1875 L 6.171875 -6.1875 Z M 6.171875 0 "/></g></g></g></svg>