<svg xmlns="http://www.w3.org/2000/svg" xmlns:xlink="http://www.w3.org/1999/xlink" width="40" zoomAndPan="magnify" viewBox="0 0 30 41.25" height="55" preserveAspectRatio="xMidYMid meet" version="1.0"><defs><g/><clipPath id="4d19e8cdfc"><path d="M 0.269531 0 L 29.730469 0 L 29.730469 40.511719 L 0.269531 40.511719 Z M 0.269531 0 " clip-rule="nonzero"/></clipPath><clipPath id="f3cd5e46cb"><path d="M 6.160156 0 L 23.839844 0 C 27.09375 0 29.730469 2.636719 29.730469 5.894531 L 29.730469 34.621094 C 29.730469 37.875 27.09375 40.511719 23.839844 40.511719 L 6.160156 40.511719 C 2.90625 40.511719 0.269531 37.875 0.269531 34.621094 L 0.269531 5.894531 C 0.269531 2.636719 2.90625 0 6.160156 0 " clip-rule="nonzero"/></clipPath></defs><g fill="#ffffff" fill-opacity="1"><g transform="translate(9.570782, 14.991276)"><g><path d="M 6.34375 -8.75 L 6.34375 -1.8125 L 8.171875 -1.8125 C 8.554688 -1.8125 8.828125 -1.753906 8.984375 -1.640625 C 9.234375 -1.460938 9.359375 -1.21875 9.359375 -0.90625 C 9.359375 -0.300781 8.960938 0 8.171875 0 L 2.703125 0 C 2.316406 0 2.046875 -0.0625 1.890625 -0.1875 C 1.628906 -0.363281 1.5 -0.601562 1.5 -0.90625 C 1.5 -1.257812 1.644531 -1.519531 1.9375 -1.6875 C 2.070312 -1.769531 2.328125 -1.8125 2.703125 -1.8125 L 4.53125 -1.8125 L 4.53125 -8.75 L 2.703125 -8.75 C 2.296875 -8.75 2.023438 -8.800781 1.890625 -8.90625 C 1.628906 -9.101562 1.5 -9.351562 1.5 -9.65625 C 1.5 -10 1.644531 -10.257812 1.9375 -10.4375 C 2.070312 -10.519531 2.328125 -10.5625 2.703125 -10.5625 L 8.171875 -10.5625 C 8.554688 -10.5625 8.828125 -10.503906 8.984375 -10.390625 C 9.234375 -10.210938 9.359375 -9.96875 9.359375 -9.65625 C 9.359375 -9.300781 9.210938 -9.039062 8.921875 -8.875 C 8.796875 -8.789062 8.546875 -8.75 8.171875 -8.75 Z M 6.34375 -8.75 "/></g></g></g><g fill="#ffffff" fill-opacity="1"><g transform="translate(9.570782, 35.175385)"><g><path d="M 2.578125 -7.046875 L 2.578125 -1.8125 L 3.203125 -1.8125 C 3.585938 -1.8125 3.863281 -1.753906 4.03125 -1.640625 C 4.28125 -1.460938 4.40625 -1.21875 4.40625 -0.90625 C 4.40625 -0.582031 4.257812 -0.320312 3.96875 -0.125 C 3.820312 -0.0390625 3.566406 0 3.203125 0 L 0.875 0 C 0.445312 0 0.15625 -0.0625 0 -0.1875 C -0.226562 -0.34375 -0.34375 -0.582031 -0.34375 -0.90625 C -0.34375 -1.507812 0.0234375 -1.8125 0.765625 -1.8125 L 0.765625 -8.75 C 0.128906 -8.8125 -0.1875 -9.117188 -0.1875 -9.671875 C -0.1875 -9.992188 -0.0390625 -10.253906 0.25 -10.453125 C 0.375 -10.523438 0.601562 -10.5625 0.9375 -10.5625 C 0.9375 -10.5625 0.960938 -10.5625 1.015625 -10.5625 L 2.984375 -10.5625 L 5.484375 -5.171875 L 7.9375 -10.5625 L 9.921875 -10.5625 C 10.316406 -10.5625 10.59375 -10.503906 10.75 -10.390625 C 11 -10.191406 11.125 -9.945312 11.125 -9.65625 C 11.125 -9.113281 10.804688 -8.8125 10.171875 -8.75 L 10.171875 -1.8125 C 10.910156 -1.8125 11.28125 -1.507812 11.28125 -0.90625 C 11.28125 -0.582031 11.132812 -0.320312 10.84375 -0.125 C 10.695312 -0.0390625 10.445312 0 10.09375 0 L 7.734375 0 C 7.316406 0 7.046875 -0.0625 6.921875 -0.1875 C 6.660156 -0.363281 6.53125 -0.601562 6.53125 -0.90625 C 6.53125 -1.257812 6.675781 -1.519531 6.96875 -1.6875 C 7.101562 -1.769531 7.359375 -1.8125 7.734375 -1.8125 L 8.359375 -1.8125 L 8.359375 -7.046875 L 6.359375 -2.5 L 4.703125 -2.5 Z M 2.578125 -7.046875 "/></g></g></g><g clip-path="url(#4d19e8cdfc)"><g clip-path="url(#f3cd5e46cb)"><path stroke-linecap="butt" transform="matrix(0.736607, 0, 0, 0.736607, 0.267858, 0.000000982143)" fill="none" stroke-linejoin="miter" d="M 7.999242 -0.00000133333 L 32.000758 -0.00000133333 C 36.418183 -0.00000133333 39.997728 3.579544 39.997728 8.002272 L 39.997728 47.000759 C 39.997728 51.418183 36.418183 54.997729 32.000758 54.997729 L 7.999242 54.997729 C 3.581817 54.997729 0.00227175 51.418183 0.00227175 47.000759 L 0.00227175 8.002272 C 0.00227175 3.579544 3.581817 -0.00000133333 7.999242 -0.00000133333 " stroke="#fbfaf9" stroke-width="6" stroke-opacity="1" stroke-miterlimit="4"/></g></g></svg>